<?xml version="1.0" standalone="no"?>
<!DOCTYPE svg PUBLIC "-//W3C//DTD SVG 20010904//EN"
 "http://www.w3.org/TR/2001/REC-SVG-20010904/DTD/svg10.dtd">
<svg version="1.0" xmlns="http://www.w3.org/2000/svg"
 width="1434.000000pt" height="436.000000pt" viewBox="0 0 1434.000000 436.000000"
 preserveAspectRatio="xMidYMid meet">
<metadata>
Created by potrace 1.16, written by Peter Selinger 2001-2019
</metadata>
<g transform="translate(0.000000,436.000000) scale(0.100000,-0.100000)"
fill="#000000" stroke="none">
<path d="M2272 4213 c-71 -82 -611 -703 -1200 -1381 l-1072 -1233 0 -255 0
-254 1240 0 1240 0 0 -545 0 -545 310 0 310 0 0 545 0 545 265 0 265 0 0 265
0 265 -265 0 -265 0 0 1370 0 1370 -350 0 -349 0 -129 -147z m205 -2590 c-2
-2 -391 -2 -864 -1 l-861 3 862 991 861 991 3 -990 c1 -545 1 -992 -1 -994z"/>
<path d="M6825 4349 c-268 -39 -633 -180 -860 -332 -165 -111 -234 -167 -358
-290 -331 -328 -559 -791 -607 -1236 -19 -173 -8 -475 23 -621 57 -263 173
-540 318 -756 89 -133 257 -325 360 -412 l79 -67 -395 -3 -395 -2 0 -315 0
-315 855 0 855 0 0 413 0 413 -64 23 c-84 29 -280 129 -356 181 -62 42 -196
161 -264 233 -127 137 -263 380 -315 562 -53 189 -64 278 -58 475 4 166 7 184
46 335 59 225 157 409 320 602 97 114 302 273 446 345 95 48 315 123 422 145
124 25 462 25 586 0 107 -22 327 -97 422 -145 144 -72 349 -231 446 -345 163
-193 261 -377 320 -602 39 -151 42 -169 46 -335 6 -197 -5 -286 -58 -475 -52
-182 -188 -425 -315 -562 -68 -72 -202 -191 -264 -233 -76 -52 -272 -152 -356
-181 l-64 -23 0 -413 0 -413 855 0 855 0 0 315 0 315 -395 2 -394 3 81 70
c325 278 579 717 675 1165 31 146 42 448 23 621 -48 445 -276 908 -607 1236
-124 123 -193 179 -358 290 -232 155 -594 294 -868 332 -91 13 -594 13 -682 0z"/>
<path d="M12952 4178 c-88 -101 -630 -725 -1206 -1387 l-1046 -1204 0 -249 0
-248 1245 0 1245 0 0 -545 0 -545 310 0 310 0 0 545 0 545 265 0 265 0 0 265
0 265 -265 0 -265 0 0 1370 0 1370 -350 0 -349 0 -159 -182z m235 -2555 c-2
-2 -391 -2 -864 -1 l-861 3 862 991 861 991 3 -990 c1 -545 1 -992 -1 -994z"/>
</g>
</svg>
