<svg id="svg" xmlns="http://www.w3.org/2000/svg" xmlns:xlink="http://www.w3.org/1999/xlink" width="400" height="152.8861154446178" viewBox="0, 0, 400,152.8861154446178"><g id="svgg"><path id="path0" d="M255.538 0.409 C 251.149 1.337,251.482 0.911,251.482 5.596 L 251.482 9.919 249.572 9.254 C 241.929 6.589,234.013 12.291,234.010 20.462 C 234.008 28.878,242.299 34.739,249.784 31.611 C 251.061 31.078,252.106 30.907,252.106 31.233 C 252.106 31.559,253.510 31.825,255.226 31.825 L 258.346 31.825 258.346 15.913 C 258.346 3.560,258.172 0.016,257.566 0.072 C 257.137 0.112,256.225 0.264,255.538 0.409 M274.883 0.409 C 274.197 0.554,273.003 0.807,272.231 0.972 L 270.827 1.272 270.827 16.576 L 270.827 31.881 275.351 31.918 C 277.839 31.939,281.581 31.997,283.666 32.047 C 294.509 32.306,299.493 18.678,291.214 11.409 C 288.125 8.698,282.688 7.923,278.783 9.638 C 277.793 10.073,277.691 9.644,277.691 5.059 C 277.691 -0.185,277.691 -0.185,274.883 0.409 M200.756 9.293 C 198.926 10.226,198.440 10.291,198.440 9.605 C 198.440 8.968,197.524 8.736,195.008 8.736 L 191.576 8.736 191.576 20.281 L 191.576 31.825 195.008 31.825 L 198.440 31.825 198.440 24.608 C 198.440 15.389,199.791 13.206,204.892 14.181 C 207.246 14.631,207.494 9.134,205.148 8.506 C 203.228 7.991,203.354 7.968,200.756 9.293 M79.251 24.961 L 79.251 41.186 82.683 41.186 L 86.115 41.186 86.115 36.151 C 86.115 31.196,86.137 31.125,87.520 31.627 C 99.235 35.883,109.059 21.311,100.584 12.248 C 97.559 9.012,91.230 7.625,87.820 9.450 C 86.820 9.985,86.428 9.985,86.249 9.450 C 86.110 9.032,84.613 8.736,82.631 8.736 L 79.251 8.736 79.251 24.961 M112.330 9.894 C 106.654 12.938,104.344 20.351,107.279 26.104 C 111.511 34.400,124.994 34.400,129.227 26.104 C 134.539 15.691,122.700 4.333,112.330 9.894 M131.306 9.828 C 131.896 11.696,137.285 31.285,137.285 31.563 C 137.285 31.707,138.762 31.825,140.566 31.825 L 143.846 31.825 145.648 25.585 C 146.639 22.153,147.622 19.345,147.832 19.345 C 148.041 19.345,149.038 22.153,150.047 25.585 L 151.881 31.825 155.075 31.825 L 158.268 31.825 161.398 20.437 L 164.528 9.048 161.760 8.855 C 158.309 8.615,158.695 8.098,156.633 15.716 C 155.665 19.294,154.723 21.737,154.511 21.217 C 154.302 20.702,153.349 17.754,152.393 14.665 L 150.656 9.048 147.894 9.048 L 145.132 9.048 143.394 14.665 C 142.439 17.754,141.486 20.702,141.276 21.217 C 140.928 22.073,140.229 20.012,137.941 11.388 L 137.237 8.736 134.099 8.736 C 131.395 8.736,131.009 8.887,131.306 9.828 M171.919 9.621 C 163.818 13.237,162.975 25.456,170.484 30.421 C 174.087 32.802,181.271 32.919,184.913 30.654 L 187.299 29.171 185.289 27.097 C 183.366 25.114,183.204 25.063,181.530 25.929 C 178.486 27.503,175.514 27.098,173.275 24.805 L 171.295 22.777 179.875 22.603 L 188.456 22.430 188.456 20.243 C 188.456 11.828,179.648 6.171,171.919 9.621 M214.353 9.621 C 206.251 13.237,205.409 25.456,212.918 30.421 C 216.521 32.802,223.704 32.919,227.347 30.654 L 229.733 29.171 227.723 27.097 C 225.800 25.114,225.638 25.063,223.964 25.929 C 220.920 27.503,217.948 27.098,215.709 24.805 L 213.729 22.777 222.309 22.603 L 230.889 22.430 230.889 20.243 C 230.889 11.828,222.082 6.171,214.353 9.621 M295.788 9.314 C 295.788 9.769,299.982 20.944,303.927 31.002 C 304.751 33.103,302.522 35.569,299.799 35.569 C 297.680 35.569,297.660 35.596,297.660 38.378 L 297.660 41.186 300.936 41.182 C 307.150 41.174,307.865 40.274,315.214 23.213 C 321.793 7.938,321.669 8.736,317.469 8.736 L 314.190 8.736 311.122 16.302 L 308.055 23.868 305.288 16.302 L 302.521 8.736 299.154 8.736 C 297.303 8.736,295.788 8.996,295.788 9.314 M180.218 15.131 C 183.118 17.538,182.485 18.097,176.857 18.097 L 171.455 18.097 172.378 16.693 C 174.218 13.896,177.856 13.172,180.218 15.131 M222.651 15.131 C 225.552 17.538,224.919 18.097,219.291 18.097 L 213.888 18.097 214.812 16.693 C 216.651 13.896,220.290 13.172,222.651 15.131 M95.524 16.177 C 100.902 21.555,92.810 30.364,86.955 25.505 C 85.379 24.197,85.828 15.930,87.520 15.114 C 90.299 13.774,93.553 14.205,95.524 16.177 M122.357 16.177 C 127.140 20.960,121.856 28.874,115.739 26.088 C 110.102 23.519,112.065 14.353,118.253 14.353 C 119.941 14.353,121.006 14.826,122.357 16.177 M249.893 15.077 C 251.814 15.952,252.341 24.096,250.570 25.565 C 246.847 28.655,240.250 25.287,240.250 20.295 C 240.250 15.697,245.280 12.975,249.893 15.077 M287.099 16.177 C 292.478 21.555,284.386 30.364,278.531 25.505 C 276.954 24.197,277.403 15.930,279.095 15.114 C 281.875 13.774,285.128 14.205,287.099 16.177 M79.875 97.972 L 79.875 134.165 87.051 134.165 L 94.228 134.165 94.228 97.972 L 94.228 61.778 87.051 61.778 L 79.875 61.778 79.875 97.972 M27.208 63.397 C 0.754 69.798,-9.407 104.025,9.282 123.779 C 34.256 150.175,77.663 127.856,71.083 92.002 C 67.424 72.064,46.844 58.646,27.208 63.397 M42.445 78.437 C 51.550 81.377,58.079 92.852,56.169 102.558 C 51.129 128.175,16.163 125.865,15.089 99.844 C 14.448 84.321,27.949 73.755,42.445 78.437 M183.054 83.550 C 181.628 83.797,179.311 84.760,177.906 85.690 L 175.351 87.381 175.351 85.812 L 175.351 84.243 168.487 84.243 L 161.622 84.243 161.622 109.204 L 161.622 134.165 168.487 134.165 L 175.351 134.165 175.351 117.745 L 175.351 101.326 177.067 99.725 C 180.485 96.537,185.427 95.671,188.383 97.741 C 191.266 99.761,191.576 101.781,191.576 118.545 L 191.576 134.165 198.752 134.165 L 205.928 134.165 205.949 117.785 C 205.972 99.974,205.890 100.415,209.655 97.797 C 211.668 96.397,216.995 96.366,218.960 97.741 C 221.843 99.761,222.153 101.781,222.153 118.545 L 222.153 134.165 229.329 134.165 L 236.505 134.165 236.485 116.849 C 236.463 98.172,236.131 95.834,232.808 90.996 C 226.760 82.193,211.780 80.552,202.449 87.669 C 200.537 89.128,200.421 89.142,199.436 88.054 C 196.305 84.594,188.852 82.545,183.054 83.550 M271.763 83.276 C 271.420 83.409,270.114 83.688,268.862 83.897 C 267.609 84.106,265.573 84.963,264.337 85.801 L 262.090 87.326 262.090 85.785 L 262.090 84.243 254.914 84.243 L 247.738 84.243 247.738 118.565 L 247.738 152.886 254.914 152.886 L 262.090 152.886 262.090 142.278 C 262.090 136.443,262.196 131.669,262.324 131.669 C 262.452 131.669,263.827 132.379,265.380 133.247 C 283.041 143.118,304.054 121.272,297.119 100.250 C 293.661 89.768,279.504 80.291,271.763 83.276 M376.356 83.635 C 356.770 87.732,358.052 109.922,378.176 115.137 C 384.589 116.799,386.786 118.370,385.906 120.664 C 384.590 124.093,376.902 123.364,372.508 119.395 L 370.066 117.189 365.532 121.086 C 359.880 125.944,359.988 125.454,363.750 129.118 C 374.112 139.211,394.496 136.540,399.100 124.485 C 402.813 114.762,397.663 107.044,384.711 102.922 C 377.656 100.677,376.911 100.239,376.911 98.332 C 376.911 94.483,384.936 94.419,388.109 98.243 C 389.271 99.642,389.412 99.584,394.148 95.715 C 399.494 91.348,399.400 91.806,395.653 88.437 C 390.878 84.144,383.134 82.217,376.356 83.635 M100.028 85.023 C 100.928 87.236,109.714 107.272,114.430 117.865 C 120.557 131.629,120.414 130.899,117.999 136.150 C 115.472 141.644,111.076 152.021,111.076 152.494 C 111.076 152.710,114.516 152.885,118.721 152.884 L 126.365 152.881 127.567 149.920 C 128.228 148.291,129.529 145.273,130.459 143.214 C 131.389 141.154,134.598 133.853,137.590 126.989 C 144.924 110.167,149.073 100.662,150.392 97.660 C 154.240 88.908,156.006 84.769,156.006 84.507 C 156.006 84.341,152.467 84.285,148.140 84.381 L 140.274 84.555 134.149 99.844 L 128.023 115.133 127.103 112.949 C 125.711 109.647,120.040 95.872,117.533 89.704 L 115.314 84.243 107.512 84.243 C 101.518 84.243,99.784 84.424,100.028 85.023 M307.150 102.496 C 307.356 123.123,307.716 124.835,312.942 130.062 C 319.018 136.137,331.191 137.017,337.129 131.809 C 338.136 130.927,338.222 130.982,338.222 132.509 L 338.222 134.165 345.398 134.165 L 352.574 134.165 352.574 109.204 L 352.574 84.243 345.398 84.243 L 338.222 84.243 338.222 100.828 L 338.222 117.413 336.448 119.186 C 334.218 121.416,330.583 122.439,327.439 121.722 C 321.767 120.428,321.373 119.009,321.373 99.864 L 321.373 84.243 314.170 84.243 L 306.967 84.243 307.150 102.496 M277.939 97.932 C 288.605 104.524,284.277 121.961,272.001 121.849 C 264.058 121.777,262.090 119.267,262.090 109.204 C 262.090 100.697,262.430 99.845,266.771 97.450 C 268.913 96.268,275.722 96.562,277.939 97.932 " stroke="none" fill="#000000" fill-rule="evenodd"></path></g></svg>