<svg id="svg" xmlns="http://www.w3.org/2000/svg" viewBox="0 0 399.99 214.18"><g id="svgg"><path id="path0" class="cls-1" d="M187.93.62a56.42,56.42,0,0,0-8.15,1.66c-.22.12-1.91.68-3.77,1.24a30.16,30.16,0,0,0-3.64,1.24,26.06,26.06,0,0,1-2.66,1.16,16.21,16.21,0,0,0-2.52,1.13,17.56,17.56,0,0,1-2.38,1.23,15.43,15.43,0,0,0-2.39,1.25,12,12,0,0,1-1.8,1.18A56.07,56.07,0,0,0,155,14.48a13.9,13.9,0,0,1-1.26,1c-3.86,2.76-14.46,14-14.46,15.31A5.86,5.86,0,0,1,138.4,32a5.3,5.3,0,0,0-.88,1.32,5.08,5.08,0,0,1-.78,1.33,20.15,20.15,0,0,0-1.45,2.49c-.36.78-.91,1.81-1.21,2.3a23.76,23.76,0,0,0-1.35,2.89,18.07,18.07,0,0,1-1,2.28,45,45,0,0,0-1.9,5.76,9,9,0,0,1-.61,1.77c-.33.43-1.41,6.72-1.87,10.92a76.51,76.51,0,0,0,.24,16.09c.59,4.08,1.45,8.3,1.69,8.3s.22.2.22.44a49.7,49.7,0,0,0,2.2,7.08,12,12,0,0,1,.94,2c.82,2.09,3.38,7.11,3.7,7.24a.36.36,0,0,1,.2.29A20.24,20.24,0,0,0,139,108.5a4.24,4.24,0,0,1,.82,1.26,1.56,1.56,0,0,0,.53.76,7.43,7.43,0,0,1,1.1,1.36c1.5,2.33,7.38,8.42,10.56,10.94.69.55,1.41,1.14,1.59,1.32s-2.35.31-13.14.31H127v20.87h57.33v-27.6l-.81-.16a10.08,10.08,0,0,1-1.83-.64c-.55-.26-1.94-.84-3.08-1.27a14.15,14.15,0,0,1-2.4-1.09,19.78,19.78,0,0,0-2.28-1.27,16.39,16.39,0,0,1-2.25-1.27,18.53,18.53,0,0,0-1.68-1.19,30.92,30.92,0,0,1-4.87-3.89,49.16,49.16,0,0,1-6.35-6.72,12.38,12.38,0,0,0-1.09-1.4,12.54,12.54,0,0,1-1.27-1.9c-.47-.81-1.22-2-1.68-2.74a7.3,7.3,0,0,1-.83-1.49,16.52,16.52,0,0,0-.9-2A32.25,32.25,0,0,1,151.43,87c-.34-1-.78-2.24-1-2.67-2.45-5.5-2.35-24.07.16-28.76a14.78,14.78,0,0,0,.61-1.77,21.07,21.07,0,0,1,1.66-4.28,10.05,10.05,0,0,0,1-1.83,21.34,21.34,0,0,1,1.5-2.76c.4-.58,1-1.51,1.29-2.06.67-1.2,1.17-1.83,4.11-5.23a47.28,47.28,0,0,1,9-8.12,17.15,17.15,0,0,0,1.59-1.15,13.36,13.36,0,0,1,2.13-1.23,11.44,11.44,0,0,0,1.82-1,24.68,24.68,0,0,1,4.49-2,.25.25,0,0,0,.27-.21c0-.26,3.54-1.41,6-2a8.67,8.67,0,0,0,2-.6c.95-1.44,21.7-1.45,23.49,0a6.7,6.7,0,0,0,1.65.5,36.92,36.92,0,0,1,6.16,1.89A29,29,0,0,0,222.11,25a13.94,13.94,0,0,1,2.39,1.13A7,7,0,0,0,226,27a42.82,42.82,0,0,1,5.69,3.75,11.29,11.29,0,0,0,1.25,1c2.14,1.57,8.42,8.13,8.43,8.81a2.06,2.06,0,0,0,.61.84,10.65,10.65,0,0,1,1.41,2,10.11,10.11,0,0,0,1,1.57,16.08,16.08,0,0,1,1.28,2.39,26.06,26.06,0,0,0,1.22,2.38,26,26,0,0,1,1.64,4.27c.23.76.57,1.73.75,2.14,1.77,4,2.38,16,1.15,23C250,81.9,247.65,89.25,247,90a17.08,17.08,0,0,0-1.13,2.26,16.48,16.48,0,0,1-1.13,2.26c-.17.21-.75,1.11-1.27,2a17.89,17.89,0,0,1-1.65,2.39,5.83,5.83,0,0,0-.78,1c-.33,1-6.74,7.53-8.76,8.91a11.62,11.62,0,0,0-1.29,1,10.91,10.91,0,0,1-1.64,1.13,6.2,6.2,0,0,0-1.31.91,11.78,11.78,0,0,1-2.14,1.24,14.94,14.94,0,0,0-2.17,1.22,14.72,14.72,0,0,1-2.39,1.12c-1.24.51-2.72,1.13-3.27,1.39a10.33,10.33,0,0,1-1.82.62l-.82.17v27.62h57.32V124.45H259.32c-14.88,0-13.94.12-11.84-1.44A77.74,77.74,0,0,0,260,109.47a12.36,12.36,0,0,1,1-1.39,17,17,0,0,0,2-3.24,1.28,1.28,0,0,1,.38-.6,10.23,10.23,0,0,0,1.16-2,19.22,19.22,0,0,1,1.08-2c.3-.37.56-1,1.7-3.89a6.69,6.69,0,0,1,.77-1.6c.11,0,.13-.18.05-.31s0-.23.08-.23a16.76,16.76,0,0,0,1.2-3.46,32,32,0,0,1,1.14-3.58c.74-.61,2.07-11.58,2.08-17.22,0-5.82-1.24-16.27-2.08-17.35a3.29,3.29,0,0,1-.37-1A45.62,45.62,0,0,0,268,44.88c-.1-.14-.61-1.33-1.13-2.64a18.65,18.65,0,0,0-1.13-2.52,12.73,12.73,0,0,1-1-1.76c-2.58-5.24-8.79-13.56-12.83-17.19-.48-.43-1.28-1.18-1.78-1.66a46.25,46.25,0,0,0-4.52-3.82,13.21,13.21,0,0,1-1.38-1.11,13.92,13.92,0,0,0-1.76-1.24,13.09,13.09,0,0,1-1.64-1.12A51.83,51.83,0,0,0,235,8.4a20,20,0,0,1-2.39-1.35,21.79,21.79,0,0,0-2.64-1.15,21.79,21.79,0,0,1-2.64-1.15,60.3,60.3,0,0,0-7.19-2.24c-.19,0-.35-.09-.35-.21s-3.91-1-8.72-1.79a112.08,112.08,0,0,0-23.09.11m9.43,30.27c0,.12-.46.29-1,.38a13.47,13.47,0,0,0-5.19,2.47c-2.11,1.9-3.66,3.74-4,4.69-.14.45-.31.55-.73.43-3.1-.91-4.21-1-6.39-.55s-5,1.48-5.46,2a17.12,17.12,0,0,1-1.56,1.28,11.14,11.14,0,0,0-3.22,3.92,4.73,4.73,0,0,1-.63,1c-.95.67-1.55,7.58-.92,10.73.18.93.15,1.06-.32,1.21-1.26.4-5.55,5.15-5.55,6.15a.24.24,0,0,1-.22.26c-1.59,0-1.61,11,0,13.13a3.81,3.81,0,0,1,.49.81c0,.81,2.84,4,4.72,5.31.51.36.57.6.57,2.58,0,9.28,8.93,16.34,17.78,14l1.29-.34.3.72c.16.39.41.71.56.71s.19.07.11.15.71,1.19,2.33,2.88c5.72,6,16.52,4.36,21.44-3.17l.81-1.24,1.13.29c2.39.63,8.51.18,9.05-.66a8.64,8.64,0,0,1,1.5-.89,13.51,13.51,0,0,0,5.28-5.32A13.58,13.58,0,0,1,230.58,92c.39-.28,1-3.66,1-5.65s.06-2.12.48-2.25c1.74-.56,5.39-5.7,6.2-8.74.67-2.49.22-9.13-.65-9.75a9.4,9.4,0,0,1-.87-1.59A14.93,14.93,0,0,0,232,58.78c-.57-.28-1-.53-1.07-.55a11.63,11.63,0,0,1,.32-1.4c.68-2.63.25-8.6-.7-9.75a9.84,9.84,0,0,1-.85-1.52,16.13,16.13,0,0,0-6.26-6,13.23,13.23,0,0,0-10.49-.71c-.26.08-.47,0-.57-.35a3.72,3.72,0,0,0-.68-1.08,16.87,16.87,0,0,1-1.12-1.54,3,3,0,0,0-.79-1,8.83,8.83,0,0,1-1.43-1.13c-1.21-1.1-4.5-2.64-5.65-2.64a.85.85,0,0,1-.65-.25c-.19-.3-4.65-.34-4.65,0M213.43,56a2.22,2.22,0,0,1,.4,3,1.48,1.48,0,0,0-.38.51,33.88,33.88,0,0,1-2.58,4,4.09,4.09,0,0,0-.69,1.14,4,4,0,0,1-.7,1.11,26.51,26.51,0,0,0-1.56,2.25A24.79,24.79,0,0,1,206.49,70a9.9,9.9,0,0,0-1,1.57,5.53,5.53,0,0,1-1,1.43,2.36,2.36,0,0,0-.6.76,21.61,21.61,0,0,1-2.32,3.55,7.44,7.44,0,0,0-.84,1.34,5.43,5.43,0,0,1-.83,1.29,11.92,11.92,0,0,0-1.11,1.55c-1.38,2.29-2.42,3-3.72,2.54-1-.36-10.26-9.61-10.53-10.56a2.46,2.46,0,0,1,1.2-3c1.55-.65,2.14-.3,5.91,3.48,3.51,3.52,4,3.88,4.31,3A82.31,82.31,0,0,1,200.5,70a3.44,3.44,0,0,0,.63-1.06,4,4,0,0,1,.71-1.1c.38-.49,1.2-1.67,1.8-2.63a18.57,18.57,0,0,1,1.44-2.1,7,7,0,0,0,.82-1.27,7.52,7.52,0,0,1,1-1.47,2.58,2.58,0,0,0,.53-.68,20.25,20.25,0,0,1,2.82-4,2.77,2.77,0,0,1,3.19.26M112.94,174.87c-4.41,1.19-6.37,4-6.36,9.18v2.25h-6.27v6.28h6.29V213.7h7.29V192.58h7.54V186.3h-7.61l.13-1.91c.11-1.73.19-2,.92-2.7l.79-.8h5.77V174.8l-.78-.16a31,31,0,0,0-7.71.23m-21.68.66a3.58,3.58,0,0,0-2.21,3.87,4.13,4.13,0,0,0,8.25-.25,4.07,4.07,0,0,0-6-3.62m35.45,0a3.58,3.58,0,0,0-2.21,3.87,4.13,4.13,0,0,0,8.25-.25,4.07,4.07,0,0,0-6-3.62m208.93,0a3.59,3.59,0,0,0-2.22,3.87,4.13,4.13,0,0,0,8.25-.25,4.07,4.07,0,0,0-6-3.62m-75.55.45c-1.11.25-2.66.59-3.46.75l-1.45.3V213.7h7.3V194.9l1-.93c2.54-2.29,6.6-2.33,8.7-.09,1.27,1.37,1.33,1.83,1.33,11.14v8.68h7.54v-9.16c0-9.74-.1-10.89-1.2-13.16-2.68-5.51-11-7.3-16.59-3.57l-.81.55v-6.44a55.39,55.39,0,0,0-.19-6.41c-.11,0-1.1.22-2.2.47m-66.88.38c-1,.18-2.3.4-3,.49l-1.2.18v5.39c0,3,0,5.39-.09,5.39s-.7-.27-1.45-.6c-8.06-3.55-17.76,1-19.69,9.17-2.75,11.66,8.75,21.25,19.41,16.2l1.82-.86v2h7.29V176l-.69,0c-.38,0-1.48.17-2.45.34m34.1.4c-15.47,2.76-21.26,21.68-9.87,32.22,9.11,8.43,25.24,6,30.82-4.58,7.57-14.41-4.66-30.55-20.95-27.64M0,177.57c0,.31,3.12,8.14,6.93,17.41s7.11,17.26,7.32,17.78l.39,1,4.51-.06,4.51-.07,7.41-17.73c4.07-9.75,7.47-18,7.56-18.3l.15-.57-4.07.07-4.07.07L25.05,191c-3.08,7.63-5.65,13.93-5.71,14s-2.61-6.21-5.64-13.95L8.17,177H4.09C0,177,0,177,0,177.57m234.78,6.74a11.67,11.67,0,0,1,7.08,14.93c-3.35,9.76-17.09,10.35-21.29.93s4.69-19.13,14.21-15.86M47.86,186.06a14,14,0,0,0-7.64,23.65c5,5,13.59,5.83,20.06,1.82,2.38-1.48,2.55-1-1.87-5l-1-.93-1.09.76a8.24,8.24,0,0,1-11.93-2.82l-.61-1.19H64.19L64,199.94c-.63-9.43-7.6-15.41-16.16-13.88m31.24.35a7.88,7.88,0,0,0-3.23,2.27c-.42.49-.44.46-.44-.94V186.3H68.13v27.4h7.29V205c0-9.53-.07-9,1.49-10.7,1.85-2,5.57-2.72,8.38-1.55.41.16.44-.08.44-3.12v-3.3l-.64-.25a11,11,0,0,0-6,.37m69.07-.35a14,14,0,0,0-7.64,23.65c5,5,13.59,5.83,20.06,1.82,2.38-1.48,2.55-1-1.86-5l-1-.93-1.09.76a8.24,8.24,0,0,1-11.93-2.82l-.61-1.19H164.5l-.16-2.45c-.64-9.43-7.61-15.41-16.17-13.88m150.11,0a10.12,10.12,0,0,0-3.61,1.5c-1,.68-1,.65-1-.37v-.88h-7.29v27.4h7.29v-19l.82-.79c2.69-2.61,7-2.1,8.59,1l.65,1.31v17.5h7.56l0-9.58c0-10.75-.14-10.05,1.9-11.11,3-1.54,6.05-.74,7.5,2,.52,1,.54,1.35.62,9.87l.08,8.86h7.26v-9.49c0-10-.09-10.85-1.2-13-3-5.95-11.82-7.24-17.31-2.54l-1,.89-1.05-1a11,11,0,0,0-9.72-2.5m58.82,0a14,14,0,0,0-7.64,23.65c5,5,13.59,5.83,20.06,1.82,2.37-1.48,2.55-1-1.87-5l-1-.93-1.09.76a8.24,8.24,0,0,1-11.93-2.82l-.61-1.19h20.45l-.17-2.45c-.63-9.43-7.61-15.41-16.16-13.88m27.81,0c-5.68.8-8.66,3.71-8.67,8.45,0,5.37,2.22,7.17,10.43,8.41,4.63.71,4.69.72,5.54,1.44,1.42,1.19.73,3-1.43,3.7-2.72.93-7,.19-10.21-1.73-1.85-1.12-1.54-1.24-3.45,1.36s-2,2.7-.26,3.73c9.61,5.74,23.19,2,23.13-6.33,0-5-2.64-6.92-10.82-8.2-4.74-.74-5.89-1.14-6.29-2.19-1.3-3.43,6.06-4.21,11.26-1.18a7.21,7.21,0,0,0,1.18.61,21.36,21.36,0,0,0,1.91-2.32l1.76-2.33-.56-.48c-2.45-2.07-9.22-3.54-13.52-2.94M89.5,200v13.7h7.29V186.3H89.5V200M125,200v13.7h7.29V186.3H125V200m208.93,0v13.7h7.29V186.3h-7.29V200m-281.4-7.54a7.21,7.21,0,0,1,4,4.08l.16.57H50.17c-3.53,0-6.42-.06-6.42-.14,0-3,5.49-5.86,8.73-4.51m100.31,0a7.21,7.21,0,0,1,4,4.08l.17.57h-6.43c-3.54,0-6.43-.06-6.43-.14,0-3,5.49-5.86,8.73-4.51m208.93,0a7.16,7.16,0,0,1,3.95,4.08l.17.57h-6.43c-3.53,0-6.42-.06-6.42-.14,0-3,5.49-5.86,8.73-4.51M186.3,193a10.05,10.05,0,0,1,1.95,1.2l.81.69v10.2l-.91.7c-5.16,3.94-12.79,1-13.35-5.16-.54-5.93,5.86-10.17,11.5-7.63" transform="translate(0 0.04)"/></g></svg>