<svg id="svg" xmlns="http://www.w3.org/2000/svg" viewBox="0 0 399.93 56.03"><g id="svgg"><path id="path0" class="cls-1" d="M22.2.45C0,5.19-7.69,32.25,9,46.76l1.18,1H0v8.09H22L22,50.59l0-5.29-1.32-.52C.66,36.81,6.49,8,28,8S55.4,36.81,35.47,44.78l-1.32.52,0,5.29-.05,5.29h22V47.79H45.88l1.19-1a26.54,26.54,0,0,0,6.26-31.55A28.68,28.68,0,0,0,22.2.45m142.62,11c-5.13.87-7,2.87-7.12,7.65l-.07,2.4h-5v5.08h5.08V44.21h6V26.53h6.21V21.45h-6.21V20.08c0-2.95,1.73-4,5.41-3.27l.8.16V11.71l-.61-.11a27.24,27.24,0,0,0-4.47-.2m-138.54.71a5.87,5.87,0,0,0-2.68,2l-.48.74-1.46-.1a5.76,5.76,0,0,0-5.91,6.81c.17.74.15.77-.74,1.58a5.91,5.91,0,0,0-.14,8.75,2,2,0,0,1,.8,1.69c.36,3.56,4,6.32,7,5.22.39-.15.49-.09.8.48A5.47,5.47,0,0,0,30,41.38c1-.36,2.94-2.13,2.94-2.63,0-.1.21-.09.48,0,2.92,1.11,6.85-1.88,6.85-5.22,0-.93.05-1,.92-1.84a5.67,5.67,0,0,0,1.2-6.79c-.53-1-1.7-2.33-2.1-2.33a4.48,4.48,0,0,1-.06-1.66c.21-3.73-2-6.15-5.74-6.15a5.44,5.44,0,0,1-1.74-.14,7.22,7.22,0,0,0-2.22-2.16,6.08,6.08,0,0,0-4.24-.36m119.09,0a3.07,3.07,0,0,0-2.16,3.47,3.37,3.37,0,1,0,6.74-.26,3.31,3.31,0,0,0-4.58-3.21m29.44-.06a3.47,3.47,0,0,0-2.47,3.31c0,4.3,6.4,4.73,6.9.47a3.45,3.45,0,0,0-4.43-3.78m172.26,0a3.45,3.45,0,1,0,1.52-.18,3.68,3.68,0,0,0-1.52.18M283.3,13l-3,.65V44.21h6V28.49l.71-.68c2.18-2.09,5.83-2,7.5.18.92,1.2,1,2,1,9.46v6.76h6V36.35c0-8.56-.05-9.1-1.09-11-2.29-4.28-9-5.76-13.17-2.91a7.16,7.16,0,0,1-.89.54c-.05,0-.11-2.39-.13-5.32l-.05-5.33-3,.65m-54.75.18-2.77.47v9.15l-1.2-.56a11.72,11.72,0,0,0-16.41,13.25,11.48,11.48,0,0,0,16.43,7.75l1.18-.63v1.65h6V28.41c0-12.53-.05-15.8-.24-15.78s-1.48.23-3,.5m28.46.33a15.77,15.77,0,0,0-11.41,22c6.23,13.48,26.76,11.72,30.41-2.6,2.9-11.38-7.3-21.79-19-19.39M69.24,13.6S72,20.51,75.41,28.89l6.18,15.23,3.75.05,3.75,0,6.15-15c3.39-8.25,6.21-15.15,6.28-15.33s-.12-.33-3.25-.33H94.89L90.2,25.39c-4,10.18-4.72,11.78-4.89,11.43S83.13,31.26,80.7,25L76.29,13.55H72.77c-2,0-3.53,0-3.53,0m195,6.39c8.6,4.09,6.86,17.19-2.46,18.59-7.93,1.19-13.66-7.75-9.51-14.83a9.5,9.5,0,0,1,12-3.76M135.45,21.23a7.73,7.73,0,0,0-3.17,2l-.39.5V21.45h-6V44.21h6V36.92c0-6.75,0-7.33.35-7.85a6.17,6.17,0,0,1,6.86-2.65l1.36.3c.38,0,0-5.28-.34-5.49a9.3,9.3,0,0,0-4.67,0M316.1,21.1a8.88,8.88,0,0,0-3.42,1.41c-.36.43-.54.29-.54-.4v-.66h-6.21V44.21h6.21v-8c0-9.1-.12-8.49,1.73-9.41a4.55,4.55,0,0,1,5.11.57c1.31,1.3,1.33,1.44,1.4,9.52l.06,7.29h6V28.3l.62-.6c1.93-1.86,5.12-1.84,6.68.06.94,1.14,1,1.54,1,9.28v7.17h6.21V36.83c0-8.21-.1-9.24-1-11.16-2.57-5.27-10-6.39-14.44-2.18l-.7.66-1-.94a8.65,8.65,0,0,0-7.66-2.11M108,21.37C98,24.05,96.24,37.74,105.18,43a14.24,14.24,0,0,0,14.36-.62c1.56-1,1.57-1-.29-2.64-2.51-2.28-2.25-2.16-3.2-1.52-3.7,2.48-9,1-10.21-2.94l-.13-.42h16.58V33c0-8-6.84-13.59-14.27-11.59m83,0c-8.86,2.15-11.7,14-4.86,20.17,4.37,4,12.53,4.1,17,.29l.65-.55L202.54,40c-.72-.66-1.63-1.49-2-1.82l-.7-.61-.56.4a7.13,7.13,0,0,1-8.77-.22A7.46,7.46,0,0,1,188.71,35c0-.18,1.79-.23,8.3-.23h8.3l-.09-2.21c-.33-8-6.74-13.06-14.21-11.26m172.3,0c-8,2.12-11.21,12-6.13,18.65,3.86,5.1,12,6.13,17.74,2.26l1.44-1-1.68-1.57c-2.48-2.32-2.34-2.26-3.3-1.56a7.15,7.15,0,0,1-8.15-.14,7.83,7.83,0,0,1-2.17-3.1c0-.08,3.77-.14,8.39-.14h8.41l-.13-1.91c-.55-8.39-7-13.51-14.42-11.53m22.6.08c-3.68,1-5.71,3.36-5.73,6.67,0,4.48,2,6.06,9.09,7.16,4.37.69,5.43,1.37,4.66,3-1,2.14-5.54,2.18-9.53.09-2.18-1.15-1.8-1.24-3.39.87-1.73,2.3-1.7,2.18-.63,2.87,8.52,5.47,20.89,1.53,19.43-6.19-.63-3.31-2.62-4.72-7.82-5.54-5.52-.88-6.29-1.18-6.29-2.48,0-2.56,4.28-3,8.63-.9a6,6,0,0,0,1.91.71c1.24-1.39,2.85-3.87,2.62-4a18,18,0,0,0-12.95-2.23m-352.72.11c.54.53.32,1-2.72,5.54-3.17,4.76-3.56,5.26-4.06,5.26S22.2,28.6,22.2,28c0-1.4.93-1.23,2.66.49L26.3,30l.81-1.2c.45-.66,1.66-2.47,2.69-4,2.51-3.79,2.65-3.93,3.39-3.18M143.56,32.83V44.21h6V21.45h-6V32.83m29.16,0V44.21h6.21V21.45h-6.21V32.83m172.53,0V44.21h6V21.45h-6V32.83m-232.08-6.2c1.33.64,3.5,3.33,3,3.77,0,.05-2.46.06-5.38,0l-5.31-.05.59-1.18a5.35,5.35,0,0,1,7-2.58m83,.1a5.44,5.44,0,0,1,2.66,2.84l.37.82-5.29.05c-6.05,0-5.53.15-5.06-.94a5.27,5.27,0,0,1,7.32-2.77m172.61,0c1.23.72,2.78,2.68,2.78,3.51,0,.14-1.75.2-5.27.2s-5.27-.07-5.27-.19c0-2.94,4.94-5.17,7.76-3.52m-146-.05a8.31,8.31,0,0,1,2.09,1l.9.66V37l-.52.5a7,7,0,0,1-10.62-1.89c-2.6-5.28,2.38-10.7,8.15-8.88" transform="translate(0 0.15)"/></g></svg>